<svg xmlns="http://www.w3.org/2000/svg" xmlns:xlink="http://www.w3.org/1999/xlink" width="247.153" height="261.451" viewBox="0 0 247.153 261.451">
  <defs>
    <filter id="Path_17" x="0" y="74.671" width="185.058" height="183.797" filterUnits="userSpaceOnUse">
      <feOffset dy="3" input="SourceAlpha"/>
      <feGaussianBlur stdDeviation="3" result="blur"/>
      <feFlood flood-opacity="0.161"/>
      <feComposite operator="in" in2="blur"/>
      <feComposite in="SourceGraphic"/>
    </filter>
  </defs>
  <g id="Logo_Big" transform="translate(9.596)">
    <g id="green" transform="translate(39.474 31.164) rotate(13)" opacity="0.25">
      <path id="Path_9" data-name="Path 9" d="M201.481,358.843ZM265.6,294.555" transform="translate(-118.285 -182.171)" fill="#89c8fd"/>
      <path id="Subtraction_1" data-name="Subtraction 1" d="M-693.9-59.205v0a73.188,73.188,0,0,0,4.172-7.811,76.812,76.812,0,0,0,46.149-58.473,76.59,76.59,0,0,0-13.4-57.468,76.6,76.6,0,0,0-50.111-31.163,2.909,2.909,0,0,1-2.394-3.339,2.9,2.9,0,0,1,2.863-2.43,2.925,2.925,0,0,1,.476.039,82.363,82.363,0,0,1,53.888,33.51,82.359,82.359,0,0,1,14.407,61.8,82.361,82.361,0,0,1-33.512,53.884,83.184,83.184,0,0,1-22.537,11.455Z" transform="translate(802.583 250.476)" fill="green" stroke="green" stroke-linejoin="round" stroke-width="1"/>
      <path id="Path_18" data-name="Path 18" d="M90.166,70.161C59.16,64.9,39.925,25.86,39.925,25.86S70.963-4.649,101.968.61s50.241,44.3,50.241,44.3S121.172,75.42,90.166,70.161Zm0,0" transform="matrix(0.94, 0.342, -0.342, 0.94, -0.651, -48.563)" fill="#49cb5c"/>
      <path id="Path_19" data-name="Path 19" d="M174.094.611a48.118,48.118,0,0,0-17.548.441c29.711,6.671,48.038,43.858,48.038,43.858s-20.317,19.97-44.5,24.811c.729.164,1.462.314,2.2.441,31.006,5.26,62.044-25.252,62.044-25.252S205.1,5.871,174.094.611Zm0,0" transform="matrix(0.94, 0.342, -0.342, 0.94, -68.427, -73.233)" fill="#07b128"/>
      <path id="Path_20" data-name="Path 20" d="M150.457,41.8l-30.322-5.115L91.812.215a53.33,53.33,0,0,0-6.707.836l26.565,34.2L88.806,31.4,69.3,6.157c-1.83.826-3.61,1.7-5.325,2.611l16.39,21.205L42.555,23.594c-1.7,1.483-2.629,2.4-2.629,2.4s.623,1.262,1.818,3.356l37.6,6.343L58.492,51.816c1.343,1.383,2.751,2.75,4.224,4.076L87.14,37.008l24.205,4.084L78.425,66.561a48.352,48.352,0,0,0,6.333,2.444l34.382-26.6,30.341,5.118c1.759-1.534,2.729-2.484,2.729-2.484s-.6-1.216-1.753-3.242Zm0,0" transform="matrix(0.94, 0.342, -0.342, 0.94, -0.606, -48.688)" fill="green"/>
      <path id="Path_21" data-name="Path 21" d="M385.484,41.922c8.318-19.682,37.138-26.308,37.138-26.308S437.956,40.9,429.639,60.58,392.5,86.888,392.5,86.888,377.166,61.6,385.484,41.922Zm0,0" transform="translate(-236.877 -9.657)" fill="#49cb5c"/>
      <path id="Path_22" data-name="Path 22" d="M433.585,15.613a77.035,77.035,0,0,0-14.313,5.219c3.981,8.433,10.292,25.547,4.289,39.747-4.35,10.3-14.312,17.019-22.823,21.089,1.536,3.255,2.727,5.219,2.727,5.219s28.82-6.626,37.137-26.308-7.018-44.966-7.018-44.966Zm0,0" transform="translate(-247.841 -9.657)" fill="#07b128"/>
      <path id="Path_23" data-name="Path 23" d="M443.7,44.347l-22.162,9.3,14.551-34.787c-1.042-2.057-1.761-3.243-1.761-3.243s-1.371.316-3.6,1.013L415.689,52.578l-9.325-22.945a39.968,39.968,0,0,0-4.422,4.549l10.566,26-9.926,23.73c.969,1.891,1.626,2.976,1.626,2.976s1.491-.343,3.887-1.1l10.25-24.5,25.348-10.632A41.625,41.625,0,0,0,443.7,44.347Zm0,0" transform="translate(-248.585 -9.657)" fill="green"/>
    </g>
    <g id="green-2" data-name="green" transform="translate(0 50.62)">
      <path id="Path_9-2" data-name="Path 9" d="M201.481,358.843ZM265.6,294.555" transform="translate(-118.285 -182.171)" fill="#89c8fd"/>
      <g transform="matrix(1, 0, 0, 1, -9.6, -50.62)" filter="url(#Path_17)">
        <path id="Path_17-2" data-name="Path 17" d="M83.108,244.924A83.883,83.883,0,0,1,69.422,243.8,82.9,82.9,0,0,1,1.128,148.488a2.9,2.9,0,0,1,5.731.946,77.1,77.1,0,0,0,152.148,25.125A77.1,77.1,0,0,0,95.5,85.929a2.9,2.9,0,1,1,.945-5.73A82.919,82.919,0,0,1,83.109,244.924Zm0,0" transform="translate(9.6 1.04)" fill="green" stroke="green" stroke-linejoin="round" stroke-width="1"/>
      </g>
      <path id="Path_18-2" data-name="Path 18" d="M90.166,70.161C59.16,64.9,39.925,25.86,39.925,25.86S70.963-4.649,101.968.61s50.241,44.3,50.241,44.3S121.172,75.42,90.166,70.161Zm0,0" transform="translate(-24.692 -0.001)" fill="#49cb5c"/>
      <path id="Path_19-2" data-name="Path 19" d="M174.094.611a48.118,48.118,0,0,0-17.548.441c29.711,6.671,48.038,43.858,48.038,43.858s-20.317,19.97-44.5,24.811c.729.164,1.462.314,2.2.441,31.006,5.26,62.044-25.252,62.044-25.252S205.1,5.871,174.094.611Zm0,0" transform="translate(-96.818 -0.002)" fill="#07b128"/>
      <path id="Path_20-2" data-name="Path 20" d="M150.457,41.8l-30.322-5.115L91.812.215a53.33,53.33,0,0,0-6.707.836l26.565,34.2L88.806,31.4,69.3,6.157c-1.83.826-3.61,1.7-5.325,2.611l16.39,21.205L42.555,23.594c-1.7,1.483-2.629,2.4-2.629,2.4s.623,1.262,1.818,3.356l37.6,6.343L58.492,51.816c1.343,1.383,2.751,2.75,4.224,4.076L87.14,37.008l24.205,4.084L78.425,66.561a48.352,48.352,0,0,0,6.333,2.444l34.382-26.6,30.341,5.118c1.759-1.534,2.729-2.484,2.729-2.484s-.6-1.216-1.753-3.242Zm0,0" transform="translate(-24.692 -0.133)" fill="green"/>
      <path id="Path_21-2" data-name="Path 21" d="M385.484,41.922c8.318-19.682,37.138-26.308,37.138-26.308S437.956,40.9,429.639,60.58,392.5,86.888,392.5,86.888,377.166,61.6,385.484,41.922Zm0,0" transform="translate(-236.877 -9.657)" fill="#49cb5c"/>
      <path id="Path_22-2" data-name="Path 22" d="M433.585,15.613a77.035,77.035,0,0,0-14.313,5.219c3.981,8.433,10.292,25.547,4.289,39.747-4.35,10.3-14.312,17.019-22.823,21.089,1.536,3.255,2.727,5.219,2.727,5.219s28.82-6.626,37.137-26.308-7.018-44.966-7.018-44.966Zm0,0" transform="translate(-247.841 -9.657)" fill="#07b128"/>
      <path id="Path_23-2" data-name="Path 23" d="M443.7,44.347l-22.162,9.3,14.551-34.787c-1.042-2.057-1.761-3.243-1.761-3.243s-1.371.316-3.6,1.013L415.689,52.578l-9.325-22.945a39.968,39.968,0,0,0-4.422,4.549l10.566,26-9.926,23.73c.969,1.891,1.626,2.976,1.626,2.976s1.491-.343,3.887-1.1l10.25-24.5,25.348-10.632A41.625,41.625,0,0,0,443.7,44.347Zm0,0" transform="translate(-248.585 -9.657)" fill="green"/>
    </g>
  </g>
</svg>
