<svg xmlns="http://www.w3.org/2000/svg" xmlns:xlink="http://www.w3.org/1999/xlink" width="142.667" height="152.699" viewBox="0 0 142.667 152.699">
  <defs>
    <filter id="Path_17" x="0" y="37.638" width="115.794" height="115.061" filterUnits="userSpaceOnUse">
      <feOffset dy="3" input="SourceAlpha"/>
      <feGaussianBlur stdDeviation="3" result="blur"/>
      <feFlood flood-opacity="0.161"/>
      <feComposite operator="in" in2="blur"/>
      <feComposite in="SourceGraphic"/>
    </filter>
  </defs>
  <g id="Logo_medium" transform="translate(-855.974 -229.686)">
    <g id="green" transform="translate(900.308 226.512) rotate(13)" opacity="0.25">
      <path id="Path_9" data-name="Path 9" d="M5.959,37.473ZM43.332,0" transform="translate(35.155 85.855)" fill="#89c8fd"/>
      <path id="Subtraction_1" data-name="Subtraction 1" d="M9.105,93.663h0a42.659,42.659,0,0,0,2.432-4.553,44.773,44.773,0,0,0,26.9-34.083,44.643,44.643,0,0,0-7.81-33.5A44.647,44.647,0,0,0,1.418,3.363,1.693,1.693,0,1,1,1.969.023a48.009,48.009,0,0,1,31.41,19.532,48.006,48.006,0,0,1,8.4,36.021A48.007,48.007,0,0,1,22.243,86.985,48.487,48.487,0,0,1,9.107,93.662Z" transform="translate(46.866 38.174)" fill="green" stroke="green" stroke-linejoin="round" stroke-width="1"/>
      <path id="Path_18" data-name="Path 18" d="M29.285,40.9C11.212,37.829,0,15.073,0,15.073S18.091-2.71,36.164.355,65.449,26.177,65.449,26.177,47.358,43.961,29.285,40.9Zm0,0" transform="matrix(0.94, 0.342, -0.342, 0.94, 14.109, 0)" fill="#49cb5c"/>
      <path id="Path_19" data-name="Path 19" d="M10.228.355A28.047,28.047,0,0,0,0,.612C17.318,4.5,28,26.176,28,26.176S16.158,37.816,2.064,40.638c.425.1.852.183,1.285.257,18.073,3.066,36.164-14.719,36.164-14.719S28.3,3.421,10.228.355Zm0,0" transform="matrix(0.94, 0.342, -0.342, 0.94, 38.48, 8.871)" fill="#07b128"/>
      <path id="Path_20" data-name="Path 20" d="M64.428,24.239,46.753,21.258,30.244,0a31.086,31.086,0,0,0-3.909.487L41.819,20.425,28.492,18.176,17.12,3.464c-1.067.481-2.1.992-3.1,1.522l9.553,12.36L1.532,13.628C.543,14.492,0,15.026,0,15.026s.363.736,1.06,1.956l21.917,3.7-12.155,9.4c.783.806,1.6,1.6,2.462,2.376L27.521,21.446l14.109,2.38L22.441,38.672A28.183,28.183,0,0,0,26.132,40.1l20.041-15.5,17.686,2.983c1.025-.894,1.591-1.448,1.591-1.448s-.35-.709-1.022-1.889Zm0,0" transform="matrix(0.94, 0.342, -0.342, 0.94, 14.092, 0.045)" fill="green"/>
      <path id="Path_21" data-name="Path 21" d="M1.441,15.335C6.29,3.862,23.088,0,23.088,0s8.938,14.738,4.09,26.21S5.531,41.545,5.531,41.545s-8.938-14.738-4.09-26.21Zm0,0" transform="translate(77.8 23.819)" fill="#49cb5c"/>
      <path id="Path_22" data-name="Path 22" d="M19.146,0A44.9,44.9,0,0,0,10.8,3.042c2.321,4.915,6,14.891,2.5,23.168-2.536,6-8.342,9.92-13.3,12.293.9,1.9,1.59,3.042,1.59,3.042s16.8-3.862,21.647-15.335S19.146,0,19.146,0Zm0,0" transform="translate(81.742 23.819)" fill="#07b128"/>
      <path id="Path_23" data-name="Path 23" d="M24.342,16.748,11.424,22.167,19.9,1.89C19.3.692,18.878,0,18.878,0s-.8.184-2.1.591L8.013,21.546,2.577,8.172A23.3,23.3,0,0,0,0,10.824L6.159,25.979.373,39.811c.565,1.1.948,1.735.948,1.735s.869-.2,2.265-.643L9.561,26.621l14.775-6.2A24.264,24.264,0,0,0,24.342,16.748Zm0,0" transform="translate(82.01 23.819)" fill="green"/>
    </g>
    <g id="green-2" data-name="green" transform="translate(865.531 256.018)">
      <path id="Path_9-2" data-name="Path 9" d="M197.217,332.028Zm37.374-37.473" transform="translate(-148.723 -229.047)" fill="#89c8fd"/>
      <g transform="matrix(1, 0, 0, 1, -9.56, -26.33)" filter="url(#Path_17)">
        <path id="Path_17-2" data-name="Path 17" d="M48.443,176.2a48.894,48.894,0,0,1-7.978-.658A48.324,48.324,0,0,1,.657,119.987a1.693,1.693,0,0,1,3.34.552,44.943,44.943,0,0,0,88.686,14.645A44.941,44.941,0,0,0,55.664,83.522a1.693,1.693,0,1,1,.551-3.34A48.333,48.333,0,0,1,48.443,176.2Zm0,0" transform="translate(9.56 -36)" fill="green" stroke="green" stroke-linejoin="round" stroke-width="1"/>
      </g>
      <path id="Path_18-2" data-name="Path 18" d="M69.21,40.9C51.137,37.83,39.925,15.074,39.925,15.074S58.016-2.71,76.089.356s29.285,25.821,29.285,25.821S87.283,43.962,69.21,40.9Zm0,0" transform="translate(-31.046 -0.001)" fill="#49cb5c"/>
      <path id="Path_19-2" data-name="Path 19" d="M166.775.357a28.047,28.047,0,0,0-10.228.257c17.318,3.888,28,25.564,28,25.564s-11.843,11.64-25.937,14.462c.425.1.852.183,1.285.257,18.073,3.066,36.164-14.719,36.164-14.719S184.848,3.423,166.775.357Zm0,0" transform="translate(-121.732 -0.002)" fill="#07b128"/>
      <path id="Path_20-2" data-name="Path 20" d="M104.354,24.454,86.679,21.473,70.17.215A31.086,31.086,0,0,0,66.261.7L81.745,20.64,68.418,18.391,57.046,3.678c-1.067.481-2.1.992-3.1,1.522L63.5,17.561,41.458,13.843c-.989.864-1.532,1.4-1.532,1.4s.363.736,1.06,1.956l21.917,3.7-12.155,9.4c.783.806,1.6,1.6,2.462,2.376L67.446,21.661l14.109,2.38L62.367,38.887a28.183,28.183,0,0,0,3.691,1.425L86.1,24.809l17.686,2.983c1.025-.894,1.591-1.448,1.591-1.448s-.35-.709-1.022-1.889Zm0,0" transform="translate(-31.046 -0.167)" fill="green"/>
      <path id="Path_21-2" data-name="Path 21" d="M384.453,30.948C389.3,19.476,406.1,15.613,406.1,15.613s8.938,14.738,4.09,26.21-21.647,15.335-21.647,15.335-8.938-14.738-4.09-26.21Zm0,0" transform="translate(-297.831 -12.141)" fill="#49cb5c"/>
      <path id="Path_22-2" data-name="Path 22" d="M419.884,15.613a44.9,44.9,0,0,0-8.343,3.042c2.321,4.915,6,14.891,2.5,23.168-2.536,6-8.342,9.92-13.3,12.293.9,1.9,1.59,3.042,1.59,3.042s16.8-3.862,21.647-15.335-4.091-26.21-4.091-26.21Zm0,0" transform="translate(-311.616 -12.141)" fill="#07b128"/>
      <path id="Path_23-2" data-name="Path 23" d="M426.284,32.362l-12.918,5.419L421.847,17.5c-.607-1.2-1.027-1.89-1.027-1.89s-.8.184-2.1.591L409.955,37.16l-5.436-13.374a23.3,23.3,0,0,0-2.577,2.651L408.1,41.592l-5.786,13.832c.565,1.1.948,1.735.948,1.735s.869-.2,2.265-.643L411.5,42.234l14.775-6.2A24.264,24.264,0,0,0,426.284,32.362Zm0,0" transform="translate(-312.552 -12.141)" fill="green"/>
    </g>
  </g>
</svg>
