<svg xmlns="http://www.w3.org/2000/svg" width="262.458" height="72.737" viewBox="0 0 262.458 72.737">
  <g id="Logo" transform="translate(-146.607 -19.312)">
    <path id="Path_36" data-name="Path 36" d="M5.607,0V-44.73H34.965v3.906H10.017v16.443H31.059v3.654H10.017V0ZM53.676.63A15.565,15.565,0,0,1,47.124-.725,16.1,16.1,0,0,1,41.99-4.41a16.723,16.723,0,0,1-3.371-5.418,17.791,17.791,0,0,1-1.2-6.489,17.555,17.555,0,0,1,1.229-6.552,17.169,17.169,0,0,1,3.4-5.418A16.522,16.522,0,0,1,47.187-32a15.115,15.115,0,0,1,6.489-1.386A15.324,15.324,0,0,1,60.2-32a16.416,16.416,0,0,1,5.166,3.717,17.169,17.169,0,0,1,3.4,5.418,17.555,17.555,0,0,1,1.229,6.552,17.791,17.791,0,0,1-1.2,6.489,16.723,16.723,0,0,1-3.37,5.418A16.005,16.005,0,0,1,60.259-.725,15.78,15.78,0,0,1,53.676.63ZM41.769-16.254a13.7,13.7,0,0,0,.945,5.135,13.936,13.936,0,0,0,2.552,4.158,11.534,11.534,0,0,0,3.78,2.8A10.873,10.873,0,0,0,53.676-3.15a10.6,10.6,0,0,0,4.631-1.039,12.3,12.3,0,0,0,3.812-2.835A13.508,13.508,0,0,0,64.7-11.214a13.943,13.943,0,0,0,.945-5.166,14.018,14.018,0,0,0-.945-5.135,13.421,13.421,0,0,0-2.583-4.221,12.3,12.3,0,0,0-3.812-2.835,10.6,10.6,0,0,0-4.631-1.04,10.4,10.4,0,0,0-4.6,1.04A12.189,12.189,0,0,0,45.3-25.7a13.817,13.817,0,0,0-2.583,4.252A14.19,14.19,0,0,0,41.769-16.254ZM91.161.63A15.565,15.565,0,0,1,84.609-.725,16.1,16.1,0,0,1,79.474-4.41,16.723,16.723,0,0,1,76.1-9.828a17.791,17.791,0,0,1-1.2-6.489,17.555,17.555,0,0,1,1.229-6.552,17.169,17.169,0,0,1,3.4-5.418A16.522,16.522,0,0,1,84.672-32a15.115,15.115,0,0,1,6.489-1.386A15.324,15.324,0,0,1,97.682-32a16.416,16.416,0,0,1,5.166,3.717,17.169,17.169,0,0,1,3.4,5.418,17.555,17.555,0,0,1,1.229,6.552,17.791,17.791,0,0,1-1.2,6.489,16.723,16.723,0,0,1-3.37,5.418A16,16,0,0,1,97.744-.725,15.78,15.78,0,0,1,91.161.63ZM79.254-16.254A13.7,13.7,0,0,0,80.2-11.12,13.936,13.936,0,0,0,82.75-6.962a11.534,11.534,0,0,0,3.78,2.8A10.873,10.873,0,0,0,91.161-3.15a10.6,10.6,0,0,0,4.631-1.039A12.3,12.3,0,0,0,99.6-7.025a13.508,13.508,0,0,0,2.583-4.189,13.943,13.943,0,0,0,.945-5.166,14.017,14.017,0,0,0-.945-5.135A13.421,13.421,0,0,0,99.6-25.736a12.3,12.3,0,0,0-3.812-2.835,10.6,10.6,0,0,0-4.631-1.04,10.4,10.4,0,0,0-4.6,1.04,12.189,12.189,0,0,0-3.78,2.867A13.817,13.817,0,0,0,80.2-21.452,14.19,14.19,0,0,0,79.254-16.254ZM128.142.63a14.144,14.144,0,0,1-6.3-1.418,16.031,16.031,0,0,1-4.977-3.749,17.24,17.24,0,0,1-3.244-5.387,17.79,17.79,0,0,1-1.166-6.394,19.113,19.113,0,0,1,1.134-6.584,17.588,17.588,0,0,1,3.118-5.449,14.693,14.693,0,0,1,4.725-3.686,13.39,13.39,0,0,1,6.017-1.354,12.844,12.844,0,0,1,7.371,2.174,16.45,16.45,0,0,1,5.04,5.26V-45.99h4.284V-5.544q0,1.764,1.512,1.764V0a8.131,8.131,0,0,1-1.512.189A3.93,3.93,0,0,1,141.5-.788a3.011,3.011,0,0,1-1.134-2.363V-6.363a14.354,14.354,0,0,1-5.292,5.1A13.884,13.884,0,0,1,128.142.63Zm.945-3.78a10.206,10.206,0,0,0,3.37-.63,13.847,13.847,0,0,0,3.37-1.733A11.606,11.606,0,0,0,138.505-8.1a6.987,6.987,0,0,0,1.355-3.182V-21.42a11.262,11.262,0,0,0-1.827-3.182,14.7,14.7,0,0,0-2.741-2.615,12.878,12.878,0,0,0-3.307-1.764,10.26,10.26,0,0,0-3.465-.63,10.073,10.073,0,0,0-4.788,1.134,12.11,12.11,0,0,0-3.685,2.993,13.354,13.354,0,0,0-2.363,4.253,15.08,15.08,0,0,0-.819,4.914,13.6,13.6,0,0,0,.945,5.04,13.508,13.508,0,0,0,2.583,4.19,12.494,12.494,0,0,0,3.875,2.866A11.014,11.014,0,0,0,129.087-3.15Zm105.4-25.893a13.475,13.475,0,0,0-7.56,2.394,12.072,12.072,0,0,0-4.536,6.237V0h-4.284V-32.823h4.032v7.875a14.929,14.929,0,0,1,4.914-5.922,11.389,11.389,0,0,1,6.615-2.142,4.319,4.319,0,0,1,.819.063ZM251.748.441a13.554,13.554,0,0,1-6.206-1.418,16,16,0,0,1-4.851-3.749,17.167,17.167,0,0,1-3.181-5.355,17.623,17.623,0,0,1-1.134-6.237,19.417,19.417,0,0,1,1.1-6.521,16.791,16.791,0,0,1,3.118-5.45A15.221,15.221,0,0,1,245.417-32a13.809,13.809,0,0,1,6.206-1.386,12.631,12.631,0,0,1,7.308,2.111,20.256,20.256,0,0,1,5.292,5.323v-6.867h3.843V.126a13.416,13.416,0,0,1-1.292,6.017,12.935,12.935,0,0,1-3.465,4.379,14.741,14.741,0,0,1-5.1,2.646,21.414,21.414,0,0,1-6.205.882,18.064,18.064,0,0,1-9.135-2.016,16.1,16.1,0,0,1-5.607-5.418L239.9,4.536a11.805,11.805,0,0,0,5.166,4.63A16.358,16.358,0,0,0,252,10.647a15.288,15.288,0,0,0,4.536-.662,11.177,11.177,0,0,0,3.749-1.953,9.213,9.213,0,0,0,2.552-3.276,10.662,10.662,0,0,0,.945-4.631V-6.363a13.679,13.679,0,0,1-5.166,4.977A13.9,13.9,0,0,1,251.748.441Zm1.2-3.591a10.4,10.4,0,0,0,3.717-.693A12.445,12.445,0,0,0,259.97-5.7a12.178,12.178,0,0,0,2.488-2.614,8.06,8.06,0,0,0,1.323-2.961V-21.42a12.785,12.785,0,0,0-1.89-3.276,13.122,13.122,0,0,0-2.709-2.583,13.673,13.673,0,0,0-3.244-1.7,10.165,10.165,0,0,0-3.5-.63,10.3,10.3,0,0,0-4.946,1.166,11.817,11.817,0,0,0-3.686,3.056,13.591,13.591,0,0,0-2.3,4.284,15.434,15.434,0,0,0-.787,4.851,13.6,13.6,0,0,0,.945,5.04,13.205,13.205,0,0,0,2.615,4.189,12.557,12.557,0,0,0,3.874,2.835A11.086,11.086,0,0,0,252.945-3.15Z" transform="translate(141 78)" fill="#7a2b0c"/>
    <g id="green" transform="translate(296.26 19.312)">
      <path id="Path_9" data-name="Path 9" d="M194.7,316.192Zm21.58-21.637" transform="translate(-166.699 -256.731)" fill="#89c8fd"/>
      <path id="Path_17" data-name="Path 17" d="M27.971,135.612a28.232,28.232,0,0,1-4.606-.38A27.9,27.9,0,0,1,.379,103.156a.977.977,0,0,1,1.929.319,25.95,25.95,0,0,0,51.207,8.456A25.949,25.949,0,0,0,32.14,82.1a.977.977,0,1,1,.318-1.929,27.907,27.907,0,0,1-4.487,55.44Zm0,0" transform="translate(0 -69.866)" fill="green" stroke="green" stroke-linejoin="round" stroke-width="1"/>
      <path id="Path_18" data-name="Path 18" d="M56.834,23.614C46.4,21.843,39.925,8.7,39.925,8.7S50.371-1.564,60.806.206,77.715,15.115,77.715,15.115s-10.446,10.269-20.881,8.5Zm0,0" transform="translate(-34.798 -0.001)" fill="#49cb5c"/>
      <path id="Path_19" data-name="Path 19" d="M162.453.207a16.194,16.194,0,0,0-5.906.148c10,2.245,16.168,14.761,16.168,14.761s-6.838,6.721-14.976,8.35c.245.055.492.106.742.148,10.435,1.77,20.881-8.5,20.881-8.5S172.888,1.977,162.453.207Zm0,0" transform="translate(-136.445 -0.002)" fill="#07b128"/>
      <path id="Path_20" data-name="Path 20" d="M77.126,14.211,66.921,12.489,57.389.215A17.949,17.949,0,0,0,55.131.5l8.941,11.512-7.7-1.3-6.566-8.5c-.616.278-1.215.573-1.792.879l5.516,7.137L40.811,8.083c-.571.5-.885.807-.885.807s.21.425.612,1.13l12.655,2.135-7.018,5.427c.452.465.926.925,1.422,1.372l8.22-6.356,8.147,1.374L52.883,22.544a16.273,16.273,0,0,0,2.131.823l11.571-8.952L76.8,16.138c.592-.516.918-.836.918-.836s-.2-.409-.59-1.091Zm0,0" transform="translate(-34.799 -0.187)" fill="green"/>
      <path id="Path_21" data-name="Path 21" d="M383.844,24.468c2.8-6.624,12.5-8.854,12.5-8.854s5.161,8.51,2.362,15.134-12.5,8.854-12.5,8.854-5.161-8.51-2.362-15.134Zm0,0" transform="translate(-333.829 -13.608)" fill="#49cb5c"/>
      <path id="Path_22" data-name="Path 22" d="M411.793,15.613a25.927,25.927,0,0,0-4.817,1.757c1.34,2.838,3.464,8.6,1.444,13.377-1.464,3.465-4.817,5.728-7.681,7.1.517,1.1.918,1.757.918,1.757s9.7-2.23,12.5-8.854-2.362-15.134-2.362-15.134Zm0,0" transform="translate(-349.279 -13.608)" fill="#07b128"/>
      <path id="Path_23" data-name="Path 23" d="M416,25.284l-7.459,3.129,4.9-11.708c-.351-.692-.593-1.092-.593-1.092s-.462.106-1.213.341l-5.061,12.1-3.138-7.722a13.453,13.453,0,0,0-1.488,1.531l3.556,8.75L402.158,38.6c.326.637.547,1,.547,1s.5-.115,1.308-.371l3.45-8.246,8.531-3.578A14.011,14.011,0,0,0,416,25.284Zm0,0" transform="translate(-350.328 -13.608)" fill="green"/>
    </g>
  </g>
</svg>
