<svg xmlns="http://www.w3.org/2000/svg" width="123.841" height="34.321" viewBox="0 0 123.841 34.321">
  <g id="Logo_small" transform="translate(-146.607 -19.312)">
    <path id="Path_36" data-name="Path 36" d="M5.607-24.29V-45.4H19.46v1.843H7.688v7.759h9.929v1.724H7.688v9.78Zm22.681.3a7.344,7.344,0,0,1-3.092-.639,7.6,7.6,0,0,1-2.423-1.739,7.891,7.891,0,0,1-1.59-2.556,8.4,8.4,0,0,1-.565-3.062,8.283,8.283,0,0,1,.58-3.092A8.1,8.1,0,0,1,22.8-37.637a7.8,7.8,0,0,1,2.423-1.754,7.132,7.132,0,0,1,3.062-.654,7.231,7.231,0,0,1,3.077.654A7.746,7.746,0,0,1,33.8-37.637a8.1,8.1,0,0,1,1.605,2.556,8.284,8.284,0,0,1,.58,3.092,8.4,8.4,0,0,1-.565,3.062,7.891,7.891,0,0,1-1.59,2.556,7.552,7.552,0,0,1-2.438,1.739A7.446,7.446,0,0,1,28.288-23.992ZM22.67-31.959a6.464,6.464,0,0,0,.446,2.423,6.575,6.575,0,0,0,1.2,1.962A5.442,5.442,0,0,0,26.1-26.252a5.13,5.13,0,0,0,2.185.476,5,5,0,0,0,2.185-.49,5.8,5.8,0,0,0,1.8-1.338,6.374,6.374,0,0,0,1.219-1.977,6.579,6.579,0,0,0,.446-2.438,6.614,6.614,0,0,0-.446-2.423,6.333,6.333,0,0,0-1.219-1.992,5.8,5.8,0,0,0-1.8-1.338,5,5,0,0,0-2.185-.49,4.9,4.9,0,0,0-2.17.49,5.752,5.752,0,0,0-1.784,1.353,6.52,6.52,0,0,0-1.219,2.007A6.7,6.7,0,0,0,22.67-31.959Zm23.306,7.967a7.345,7.345,0,0,1-3.092-.639,7.6,7.6,0,0,1-2.423-1.739,7.891,7.891,0,0,1-1.59-2.556,8.4,8.4,0,0,1-.565-3.062,8.283,8.283,0,0,1,.58-3.092,8.1,8.1,0,0,1,1.605-2.556,7.8,7.8,0,0,1,2.423-1.754,7.132,7.132,0,0,1,3.062-.654,7.231,7.231,0,0,1,3.077.654,7.746,7.746,0,0,1,2.438,1.754A8.1,8.1,0,0,1,53.1-35.08a8.283,8.283,0,0,1,.58,3.092,8.4,8.4,0,0,1-.565,3.062,7.891,7.891,0,0,1-1.59,2.556,7.552,7.552,0,0,1-2.438,1.739A7.446,7.446,0,0,1,45.976-23.992Zm-5.618-7.967a6.464,6.464,0,0,0,.446,2.423,6.575,6.575,0,0,0,1.2,1.962,5.443,5.443,0,0,0,1.784,1.323,5.131,5.131,0,0,0,2.185.476,5,5,0,0,0,2.185-.49,5.8,5.8,0,0,0,1.8-1.338,6.374,6.374,0,0,0,1.219-1.977,6.579,6.579,0,0,0,.446-2.438,6.614,6.614,0,0,0-.446-2.423,6.333,6.333,0,0,0-1.219-1.992,5.8,5.8,0,0,0-1.8-1.338,5,5,0,0,0-2.185-.49,4.9,4.9,0,0,0-2.17.49,5.752,5.752,0,0,0-1.784,1.353A6.519,6.519,0,0,0,40.8-34.411,6.7,6.7,0,0,0,40.357-31.959Zm23.068,7.967a6.674,6.674,0,0,1-2.973-.669A7.564,7.564,0,0,1,58.1-26.43a8.135,8.135,0,0,1-1.531-2.542,8.394,8.394,0,0,1-.55-3.017,9.019,9.019,0,0,1,.535-3.106,8.3,8.3,0,0,1,1.471-2.571,6.933,6.933,0,0,1,2.229-1.739,6.318,6.318,0,0,1,2.839-.639,6.06,6.06,0,0,1,3.478,1.026,7.762,7.762,0,0,1,2.378,2.482V-45.99h2.021v19.085q0,.832.713.832v1.784a3.837,3.837,0,0,1-.713.089,1.854,1.854,0,0,1-1.249-.461,1.421,1.421,0,0,1-.535-1.115v-1.516a6.773,6.773,0,0,1-2.5,2.408A6.551,6.551,0,0,1,63.425-23.992Zm.446-1.784a4.816,4.816,0,0,0,1.59-.3,6.534,6.534,0,0,0,1.59-.817,5.476,5.476,0,0,0,1.263-1.219,3.3,3.3,0,0,0,.639-1.5V-34.4a5.314,5.314,0,0,0-.862-1.5A6.938,6.938,0,0,0,66.8-37.131a6.077,6.077,0,0,0-1.561-.832,4.841,4.841,0,0,0-1.635-.3,4.753,4.753,0,0,0-2.259.535,5.714,5.714,0,0,0-1.739,1.412,6.3,6.3,0,0,0-1.115,2.007,7.116,7.116,0,0,0-.386,2.319,6.418,6.418,0,0,0,.446,2.378,6.374,6.374,0,0,0,1.219,1.977A5.9,5.9,0,0,0,61.6-26.281,5.2,5.2,0,0,0,63.871-25.776ZM113.6-37.994a6.358,6.358,0,0,0-3.567,1.13,5.7,5.7,0,0,0-2.14,2.943v9.631h-2.021V-39.777h1.9v3.716a7.044,7.044,0,0,1,2.319-2.794,5.374,5.374,0,0,1,3.121-1.011,2.038,2.038,0,0,1,.386.03Zm8.145,13.912a6.4,6.4,0,0,1-2.928-.669,7.552,7.552,0,0,1-2.289-1.769,8.1,8.1,0,0,1-1.5-2.527,8.315,8.315,0,0,1-.535-2.943,9.162,9.162,0,0,1,.52-3.077,7.923,7.923,0,0,1,1.471-2.571,7.182,7.182,0,0,1,2.274-1.754,6.516,6.516,0,0,1,2.928-.654,5.96,5.96,0,0,1,3.448,1,9.558,9.558,0,0,1,2.5,2.512v-3.24h1.813V-24.23a6.33,6.33,0,0,1-.609,2.839,6.1,6.1,0,0,1-1.635,2.066,6.956,6.956,0,0,1-2.408,1.249,10.1,10.1,0,0,1-2.928.416,8.524,8.524,0,0,1-4.31-.951,7.6,7.6,0,0,1-2.646-2.556l1.249-.981a5.57,5.57,0,0,0,2.438,2.185,7.718,7.718,0,0,0,3.27.7,7.214,7.214,0,0,0,2.14-.312,5.274,5.274,0,0,0,1.769-.922,4.347,4.347,0,0,0,1.2-1.546,5.031,5.031,0,0,0,.446-2.185v-3.062a6.454,6.454,0,0,1-2.438,2.348A6.559,6.559,0,0,1,121.749-24.081Zm.565-1.694a4.909,4.909,0,0,0,1.754-.327,5.872,5.872,0,0,0,1.561-.877,5.747,5.747,0,0,0,1.174-1.234,3.8,3.8,0,0,0,.624-1.4V-34.4a6.032,6.032,0,0,0-.892-1.546,6.191,6.191,0,0,0-1.278-1.219,6.452,6.452,0,0,0-1.531-.8,4.8,4.8,0,0,0-1.65-.3,4.86,4.86,0,0,0-2.334.55A5.576,5.576,0,0,0,118-36.269a6.413,6.413,0,0,0-1.085,2.021,7.283,7.283,0,0,0-.372,2.289,6.418,6.418,0,0,0,.446,2.378,6.231,6.231,0,0,0,1.234,1.977,5.925,5.925,0,0,0,1.828,1.338A5.231,5.231,0,0,0,122.314-25.776Z" transform="translate(141 71.294)" fill="#7a2b0c"/>
    <g id="green" transform="translate(217.221 19.312)">
      <path id="Path_9" data-name="Path 9" d="M192.882,304.764Zm10.182-10.209" transform="translate(-179.67 -276.708)" fill="#89c8fd"/>
      <path id="Path_17" data-name="Path 17" d="M13.2,106.325a13.322,13.322,0,0,1-2.173-.179A13.166,13.166,0,0,1,.179,91.01a.461.461,0,1,1,.91.15,12.245,12.245,0,0,0,24.162,3.99A12.244,12.244,0,0,0,15.165,81.075a.461.461,0,1,1,.15-.91A13.168,13.168,0,0,1,13.2,106.325Zm0,0" transform="translate(0 -75.302)" fill="green" stroke="green" stroke-linejoin="round" stroke-width="1"/>
      <path id="Path_18" data-name="Path 18" d="M47.9,11.143c-4.924-.835-7.979-7.035-7.979-7.035S44.854-.738,49.778.1s7.979,7.035,7.979,7.035-4.929,4.845-9.853,4.01Zm0,0" transform="translate(-37.506 -0.001)" fill="#49cb5c"/>
      <path id="Path_19" data-name="Path 19" d="M159.333.1a7.641,7.641,0,0,0-2.787.07c4.718,1.059,7.629,6.965,7.629,6.965a16.315,16.315,0,0,1-7.066,3.94c.116.026.232.05.35.07,4.924.835,9.853-4.01,9.853-4.01S164.257.934,159.333.1Zm0,0" transform="translate(-147.062 -0.002)" fill="#07b128"/>
      <path id="Path_20" data-name="Path 20" d="M57.479,6.819l-4.815-.812L48.166.215A8.469,8.469,0,0,0,47.1.348l4.219,5.432-3.631-.613-3.1-4.008c-.291.131-.573.27-.846.415l2.6,3.368-6-1.013c-.27.235-.418.381-.418.381s.1.2.289.533l5.971,1.007L42.874,8.409c.213.22.437.437.671.647l3.879-3,3.844.649L46.04,10.751a7.679,7.679,0,0,0,1.006.388l5.46-4.224,4.818.813c.279-.244.433-.395.433-.395s-.1-.193-.278-.515Zm0,0" transform="translate(-37.507 -0.202)" fill="green"/>
      <path id="Path_21" data-name="Path 21" d="M383.4,19.791c1.321-3.126,5.9-4.178,5.9-4.178s2.435,4.015,1.114,7.141-5.9,4.178-5.9,4.178-2.435-4.015-1.114-7.141Zm0,0" transform="translate(-359.804 -14.667)" fill="#49cb5c"/>
      <path id="Path_22" data-name="Path 22" d="M405.954,15.613a12.234,12.234,0,0,0-2.273.829c.632,1.339,1.634,4.057.681,6.312a7.126,7.126,0,0,1-3.624,3.349c.244.517.433.829.433.829s4.577-1.052,5.9-4.178-1.114-7.141-1.114-7.141Zm0,0" transform="translate(-376.457 -14.667)" fill="#07b128"/>
      <path id="Path_23" data-name="Path 23" d="M408.574,20.176l-3.52,1.476,2.311-5.524c-.165-.327-.28-.515-.28-.515s-.218.05-.572.161l-2.388,5.709-1.481-3.644a6.349,6.349,0,0,0-.7.722l1.678,4.129-1.576,3.768c.154.3.258.473.258.473s.237-.054.617-.175l1.628-3.891,4.025-1.688A6.609,6.609,0,0,0,408.574,20.176Zm0,0" transform="translate(-377.588 -14.667)" fill="green"/>
    </g>
  </g>
</svg>
