<svg xmlns="http://www.w3.org/2000/svg" width="46" height="35.835" viewBox="0 0 46 35.835">
  <g id="Statistics" transform="translate(0.5)">
    <text id="Statistics-2" data-name="Statistics" transform="translate(-0.5 32.835)" fill="#cc908a" font-size="11" font-family="Raleway-Regular, Raleway"><tspan x="0" y="0">Statistics</tspan></text>
    <g id="statistics-3" data-name="statistics" transform="translate(12.072)">
      <path id="Path_29" data-name="Path 29" d="M32.856,9.9a1.847,1.847,0,0,0,1.285-.522l1.831.916a1.817,1.817,0,0,0-.023.225,1.856,1.856,0,0,0,3.712,0,1.833,1.833,0,0,0-.186-.8l2.484-2.484a1.833,1.833,0,0,0,.8.186A1.858,1.858,0,0,0,44.61,5.568a1.828,1.828,0,0,0-.093-.55L46.676,3.4a1.855,1.855,0,1,0-.829-1.544,1.828,1.828,0,0,0,.093.55L43.782,4.024a1.848,1.848,0,0,0-2.7,2.339L38.6,8.847a1.824,1.824,0,0,0-2.08.336l-1.831-.916a1.818,1.818,0,0,0,.023-.225A1.856,1.856,0,1,0,32.856,9.9Zm0,0" transform="translate(-29.721 0)" fill="#cc908a"/>
      <path id="Path_30" data-name="Path 30" d="M20.5,163.693h-.66V150.619a.618.618,0,0,0-.619-.619H16.744a.618.618,0,0,0-.619.619v13.074H14.889V154.33a.618.618,0,0,0-.619-.619H11.8a.618.618,0,0,0-.619.619v9.362H9.939V159.28a.618.618,0,0,0-.619-.619H6.846a.618.618,0,0,0-.619.619v4.413H4.99v-6.888a.618.618,0,0,0-.619-.619H1.9a.618.618,0,0,0-.619.619v6.888H.619a.619.619,0,1,0,0,1.237H20.5a.619.619,0,1,0,0-1.237Zm0,0" transform="translate(0 -143.814)" fill="#cc908a"/>
    </g>
  </g>
</svg>
